<?xml version="1.0" encoding="utf-8"?>
<!-- Generator: Adobe Illustrator 27.5.0, SVG Export Plug-In . SVG Version: 6.00 Build 0)  -->
<svg version="1.1" xmlns="http://www.w3.org/2000/svg" xmlns:xlink="http://www.w3.org/1999/xlink" x="0px" y="0px"
	 viewBox="0 0 500 500" style="enable-background:new 0 0 500 500;" xml:space="preserve">
<g id="Background_Complete">
	<g>
		<rect y="382.398" style="fill:#EBEBEB;" width="500" height="0.25"/>
		<rect x="410.767" y="391.922" style="fill:#EBEBEB;" width="33.122" height="0.25"/>
		<rect x="131.471" y="395.306" style="fill:#EBEBEB;" width="49.862" height="0.25"/>
		<rect x="380.241" y="401.208" style="fill:#EBEBEB;" width="29.526" height="0.25"/>
		<rect x="52.459" y="399.528" style="fill:#EBEBEB;" width="21.597" height="0.25"/>
		<rect x="82.959" y="399.528" style="fill:#EBEBEB;" width="38.374" height="0.25"/>
		<rect x="237.544" y="389.208" style="fill:#EBEBEB;" width="93.676" height="0.25"/>
		<path style="fill:#EBEBEB;" d="M237.014,337.8H43.915c-3.147,0-5.708-2.56-5.708-5.708V60.66c0-3.147,2.561-5.708,5.708-5.708
			h193.099c3.146,0,5.707,2.561,5.707,5.708v271.432C242.721,335.239,240.16,337.8,237.014,337.8z M43.915,55.203
			c-3.01,0-5.458,2.448-5.458,5.458v271.432c0,3.01,2.448,5.458,5.458,5.458h193.099c3.009,0,5.457-2.448,5.457-5.458V60.66
			c0-3.009-2.448-5.458-5.457-5.458H43.915z"/>
		<path style="fill:#EBEBEB;" d="M453.31,337.8H260.212c-3.147,0-5.707-2.56-5.707-5.708V60.66c0-3.147,2.561-5.708,5.707-5.708
			H453.31c3.148,0,5.708,2.561,5.708,5.708v271.432C459.019,335.239,456.458,337.8,453.31,337.8z M260.212,55.203
			c-3.009,0-5.457,2.448-5.457,5.458v271.432c0,3.01,2.448,5.458,5.457,5.458H453.31c3.01,0,5.458-2.448,5.458-5.458V60.66
			c0-3.009-2.448-5.458-5.458-5.458H260.212z"/>
	</g>
	<g>
		<g>
			<g>
				<g>
					<rect x="72.684" y="74.667" style="fill:#E6E6E6;" width="145.609" height="307.732"/>
					<rect x="75.92" y="74.667" style="fill:#F5F5F5;" width="145.609" height="307.732"/>
					
						<rect x="1.383" y="161.536" transform="matrix(-1.836970e-16 1 -1 -1.836970e-16 377.2567 79.8086)" style="fill:#FAFAFA;" width="294.683" height="133.992"/>
					<polygon style="fill:#FFFFFF;" points="112.588,375.874 146.531,81.191 184.861,81.191 150.917,375.874 					"/>
					
						<rect x="67.156" y="227.31" transform="matrix(-1.836970e-16 1 -1 -1.836970e-16 443.0298 14.0355)" style="fill:#E6E6E6;" width="294.683" height="2.446"/>
					<rect x="78.322" y="106.715" style="fill:#F5F5F5;" width="140.804" height="8.759"/>
				</g>
			</g>
		</g>
		<g>
			<g>
				<g>
					
						<rect x="342.474" y="283.296" transform="matrix(-1.836970e-16 1 -1 -1.836970e-16 724.8723 -102.2396)" style="fill:#F0F0F0;" width="142.164" height="56.042"/>
					
						<rect x="397.879" y="235.118" transform="matrix(-1.836970e-16 1 -1 -1.836970e-16 673.6186 -153.4934)" style="fill:#F5F5F5;" width="31.355" height="49.889"/>
					<path style="fill:#E6E6E6;" d="M402.514,243.97L402.514,243.97h22.084l0,0c0,1.796-1.456,3.251-3.251,3.251h-15.582
						C403.969,247.221,402.514,245.766,402.514,243.97z"/>
					
						<rect x="397.879" y="269.287" transform="matrix(-1.836970e-16 1 -1 -1.836970e-16 707.7877 -119.3243)" style="fill:#F5F5F5;" width="31.355" height="49.889"/>
					
						<rect x="397.879" y="303.456" transform="matrix(-1.836970e-16 1 -1 -1.836970e-16 741.9568 -85.1551)" style="fill:#F5F5F5;" width="31.355" height="49.889"/>
					
						<rect x="397.879" y="337.625" transform="matrix(-1.836970e-16 1 -1 -1.836970e-16 776.126 -50.986)" style="fill:#F5F5F5;" width="31.355" height="49.889"/>
					<path style="fill:#E6E6E6;" d="M402.514,278.139L402.514,278.139h22.084l0,0c0,1.796-1.456,3.251-3.251,3.251h-15.582
						C403.969,281.39,402.514,279.935,402.514,278.139z"/>
					<path style="fill:#E6E6E6;" d="M402.514,312.308L402.514,312.308h22.084l0,0c0,1.796-1.456,3.251-3.251,3.251h-15.582
						C403.969,315.559,402.514,314.104,402.514,312.308z"/>
					<path style="fill:#E6E6E6;" d="M402.514,346.478L402.514,346.478h22.084l0,0c0,1.796-1.456,3.251-3.251,3.251h-15.582
						C403.969,349.729,402.514,348.273,402.514,346.478z"/>
					
						<rect x="300.458" y="297.321" transform="matrix(-1.836970e-16 1 -1 -1.836970e-16 682.8561 -60.2235)" style="fill:#F5F5F5;" width="142.164" height="27.991"/>
				</g>
				<g>
					
						<rect x="281.373" y="283.296" transform="matrix(-1.836970e-16 1 -1 -1.836970e-16 663.7712 -41.1385)" style="fill:#F0F0F0;" width="142.164" height="56.042"/>
					
						<rect x="336.777" y="235.118" transform="matrix(-1.836970e-16 1 -1 -1.836970e-16 612.5175 -92.3923)" style="fill:#F5F5F5;" width="31.355" height="49.889"/>
					<path style="fill:#E6E6E6;" d="M341.413,243.97L341.413,243.97h22.084l0,0c0,1.796-1.456,3.251-3.251,3.251h-15.582
						C342.868,247.221,341.413,245.766,341.413,243.97z"/>
					
						<rect x="336.777" y="269.287" transform="matrix(-1.836970e-16 1 -1 -1.836970e-16 646.6866 -58.2232)" style="fill:#F5F5F5;" width="31.355" height="49.889"/>
					
						<rect x="336.778" y="303.456" transform="matrix(-1.836970e-16 1 -1 -1.836970e-16 680.8558 -24.054)" style="fill:#F5F5F5;" width="31.355" height="49.889"/>
					
						<rect x="336.777" y="337.625" transform="matrix(-1.836970e-16 1 -1 -1.836970e-16 715.0249 10.1151)" style="fill:#F5F5F5;" width="31.355" height="49.889"/>
					<path style="fill:#E6E6E6;" d="M341.413,278.139L341.413,278.139h22.084l0,0c0,1.796-1.456,3.251-3.251,3.251h-15.582
						C342.868,281.39,341.413,279.935,341.413,278.139z"/>
					<path style="fill:#E6E6E6;" d="M341.413,312.308L341.413,312.308h22.084l0,0c0,1.796-1.456,3.251-3.251,3.251h-15.582
						C342.868,315.559,341.413,314.104,341.413,312.308z"/>
					<path style="fill:#E6E6E6;" d="M341.413,346.478L341.413,346.478h22.084l0,0c0,1.796-1.456,3.251-3.251,3.251h-15.582
						C342.868,349.729,341.413,348.273,341.413,346.478z"/>
					
						<rect x="239.357" y="297.321" transform="matrix(-1.836970e-16 1 -1 -1.836970e-16 621.755 0.8776)" style="fill:#F5F5F5;" width="142.164" height="27.991"/>
				</g>
			</g>
			<g>
				<g>
					
						<rect x="328.012" y="204.087" transform="matrix(-1 -1.224647e-16 1.224647e-16 -1 676.8659 444.3214)" style="fill:#E0E0E0;" width="20.842" height="36.147"/>
					<polygon style="fill:#E6E6E6;" points="414.297,240.234 334.809,240.234 322.973,181.732 402.461,181.732 					"/>
					<polygon style="fill:#F0F0F0;" points="423.371,240.234 336.835,240.234 324.999,181.732 411.535,181.732 					"/>
					<polygon style="fill:#FFFFFF;" points="343.151,235.624 333.181,186.343 405.218,186.343 415.188,235.624 					"/>
					<polygon style="fill:#F5F5F5;" points="363.365,235.623 375.761,186.342 385.005,186.342 372.609,235.623 					"/>
					<polygon style="fill:#F5F5F5;" points="376.231,235.623 388.627,186.342 397.871,186.342 385.475,235.623 					"/>
				</g>
			</g>
		</g>
		<g>
			<g>
				<g>
					<g>
						<g>
							<polygon style="fill:#E6E6E6;" points="294.074,149.506 298.855,149.506 315.251,141.72 295.671,141.72 							"/>
							<polygon style="fill:#F5F5F5;" points="296.847,149.506 301.628,149.506 318.024,141.72 313.234,141.72 							"/>
							<polygon style="fill:#E6E6E6;" points="410.135,149.506 414.915,149.506 431.312,141.72 411.732,141.72 							"/>
							<polygon style="fill:#F5F5F5;" points="412.908,149.506 417.689,149.506 434.085,141.72 429.295,141.72 							"/>
						</g>
						<g>
							
								<rect x="282.245" y="136.654" transform="matrix(-1 -1.224647e-16 1.224647e-16 -1 596.3886 278.3736)" style="fill:#E6E6E6;" width="31.899" height="5.066"/>
							<rect x="314.144" y="136.654" style="fill:#F5F5F5;" width="132.026" height="5.066"/>
						</g>
					</g>
				</g>
			</g>
			<g>
				
					<rect x="388.002" y="116.711" transform="matrix(-1 -1.224647e-16 1.224647e-16 -1 817.9456 253.3644)" style="fill:#F0F0F0;" width="41.942" height="19.943"/>
				
					<rect x="388.002" y="111.369" transform="matrix(-1 -1.224647e-16 1.224647e-16 -1 819.3136 228.0797)" style="fill:#F0F0F0;" width="43.31" height="5.342"/>
				<rect x="375.142" y="111.369" style="fill:#EBEBEB;" width="12.86" height="5.342"/>
				<rect x="376.263" y="116.711" style="fill:#EBEBEB;" width="11.738" height="19.943"/>
				
					<rect x="376.263" y="116.711" transform="matrix(-1 -1.224647e-16 1.224647e-16 -1 806.2071 235.0701)" style="opacity:0.7;fill:#E0E0E0;" width="53.681" height="1.649"/>
			</g>
			<g>
				
					<rect x="316.306" y="104.678" transform="matrix(-1 -1.224647e-16 1.224647e-16 -1 698.8194 241.3315)" style="fill:#F0F0F0;" width="66.208" height="31.976"/>
				
					<rect x="316.306" y="101.38" transform="matrix(-1 -1.224647e-16 1.224647e-16 -1 700.9789 206.0582)" style="fill:#F0F0F0;" width="68.367" height="3.297"/>
				<rect x="296.006" y="101.38" style="fill:#EBEBEB;" width="20.299" height="3.297"/>
				<rect x="297.776" y="104.678" style="fill:#EBEBEB;" width="18.53" height="31.976"/>
				
					<rect x="297.776" y="104.678" transform="matrix(-1 -1.224647e-16 1.224647e-16 -1 680.2896 211.2821)" style="opacity:0.7;fill:#E0E0E0;" width="84.737" height="1.926"/>
			</g>
		</g>
	</g>
</g>
<g id="Background_Simple" style="display:none;">
	<g style="display:inline;">
		<path style="fill:#407BFF;" d="M332.393,172.556c36.506,14.314,80.19,34.49,67.485,88.964
			c-10.305,44.184-63.035,61.55-99.136,60.393c-41.572-1.332-62.663-39.57-99.286-55.973
			c-37.306-16.709-74.121,27.116-109.204,8.493c-34.127-18.115-36.665-80.739-26.234-115.044
			c12.787-42.053,48.613-67.795,82.473-84.606c36.085-17.915,78.394-26.442,112.64,6.06
			C292.856,110.952,289.11,155.584,332.393,172.556z"/>
		<path style="opacity:0.9;fill:#FFFFFF;" d="M332.393,172.556c36.506,14.314,80.19,34.49,67.485,88.964
			c-10.305,44.184-63.035,61.55-99.136,60.393c-41.572-1.332-62.663-39.57-99.286-55.973
			c-37.306-16.709-74.121,27.116-109.204,8.493c-34.127-18.115-36.665-80.739-26.234-115.044
			c12.787-42.053,48.613-67.795,82.473-84.606c36.085-17.915,78.394-26.442,112.64,6.06
			C292.856,110.952,289.11,155.584,332.393,172.556z"/>
	</g>
</g>
<g id="Shadow_1_">
	<ellipse id="_x3C_Path_x3E__184_" style="fill:#F5F5F5;" cx="250" cy="416.238" rx="193.889" ry="11.323"/>
</g>
<g id="Smartphone">
	<g>
		<g>
			<g>
				<path style="fill:#FFFFFF;" d="M140.836,94.241h115.328c5.137,0,9.579,4.203,9.87,9.34l12.998,229.117
					c0.292,5.137-3.673,9.34-8.81,9.34H154.894c-5.137,0-9.579-4.203-9.87-9.34l-12.998-229.117
					C131.735,98.444,135.699,94.241,140.836,94.241z"/>
				<path style="fill:#407BFF;" d="M131.921,177.372l-0.61-10.761l1.098-0.063l0.61,10.761L131.921,177.372z M130.66,155.139
					l-1.807-31.847l1.098-0.063l1.807,31.847L130.66,155.139z"/>
				<path style="fill:#407BFF;" d="M270.246,342.478H154.919c-5.393,0-10.028-4.387-10.334-9.78l-12.998-229.117
					c-0.306-5.392,3.832-9.779,9.225-9.779h115.328c5.393,0,10.028,4.387,10.334,9.779l12.998,229.117
					C279.777,338.091,275.639,342.478,270.246,342.478z M140.861,94.681c-4.908,0-8.674,3.993-8.396,8.9l12.998,229.117
					c0.279,4.908,4.498,8.9,9.406,8.9h115.328c4.908,0,8.674-3.993,8.396-8.9l-12.998-229.117c-0.278-4.908-4.498-8.9-9.405-8.9
					H140.861z"/>
			</g>
			<path style="opacity:0.2;fill:#407BFF;" d="M148.733,336.105L148.733,336.105c1.942,0,3.427-1.574,3.317-3.516l-12.985-228.898
				c-0.11-1.942-1.774-3.516-3.716-3.516h0c-1.942,0-3.427,1.574-3.317,3.516l12.985,228.898
				C145.128,334.531,146.791,336.105,148.733,336.105z"/>
		</g>
		<g>
			<path style="opacity:0.5;fill:#407BFF;" d="M209.362,110.875h40.725c2.832,0,5.258,2.296,5.419,5.128l2.31,40.725
				c0.161,2.832-2.005,5.128-4.837,5.128h-40.725c-2.832,0-5.258-2.296-5.419-5.128l-2.31-40.725
				C204.365,113.17,206.53,110.875,209.362,110.875z"/>
			<path style="opacity:0.4;fill:#407BFF;" d="M182.678,112.291h10.842c2.832,0,5.258,2.296,5.419,5.128l0.615,10.842
				c0.161,2.832-2.005,5.128-4.837,5.128h-10.842c-2.832,0-5.258-2.296-5.419-5.128l-0.615-10.842
				C177.68,114.587,179.846,112.291,182.678,112.291z"/>
			<path style="opacity:0.2;fill:#407BFF;" d="M155.913,112.291h10.842c2.832,0,5.258,2.296,5.419,5.128l0.615,10.842
				c0.161,2.832-2.005,5.128-4.837,5.128H157.11c-2.832,0-5.258-2.296-5.419-5.128l-0.615-10.842
				C150.915,114.587,153.081,112.291,155.913,112.291z"/>
			<path style="opacity:0.4;fill:#407BFF;" d="M184.212,139.342h10.842c2.832,0,5.258,2.296,5.419,5.128l0.615,10.842
				c0.161,2.832-2.005,5.128-4.837,5.128h-10.842c-2.832,0-5.258-2.296-5.419-5.128l-0.615-10.842
				C179.215,141.637,181.38,139.342,184.212,139.342z"/>
			<path style="opacity:0.4;fill:#407BFF;" d="M157.447,139.342h10.842c2.832,0,5.258,2.296,5.419,5.128l0.615,10.842
				c0.161,2.832-2.005,5.128-4.837,5.128h-10.842c-2.832,0-5.258-2.296-5.419-5.128l-0.615-10.842
				C152.45,141.637,154.615,139.342,157.447,139.342z"/>
			<path style="fill:#FFFFFF;" d="M167.198,156.825h-6.675c-1.983,0-3.689-1.613-3.801-3.597l-0.379-6.676
				c-0.113-1.984,1.41-3.597,3.393-3.597h6.675c1.983,0,3.688,1.613,3.801,3.597l0.379,6.676
				C170.703,155.212,169.181,156.825,167.198,156.825z M159.785,143.835c-1.499,0-2.649,1.219-2.564,2.718l0.379,6.676
				c0.085,1.498,1.373,2.718,2.872,2.718h6.675c1.499,0,2.649-1.219,2.564-2.718l-0.379-6.676c-0.085-1.498-1.373-2.718-2.872-2.718
				H159.785z"/>
			<path style="opacity:0.5;fill:#407BFF;" d="M203.605,235.11H162.88c-2.832,0-4.998,2.296-4.837,5.128l2.31,40.725
				c0.161,2.832,2.587,5.128,5.419,5.128h40.725c2.832,0,4.998-2.296,4.837-5.128l-2.31-40.725
				C208.863,237.406,206.438,235.11,203.605,235.11z"/>
			<path style="opacity:0.4;fill:#407BFF;" d="M230.451,236.527h-10.842c-2.832,0-4.998,2.296-4.837,5.128l0.615,10.842
				c0.161,2.832,2.587,5.128,5.419,5.128h10.842c2.832,0,4.998-2.296,4.837-5.128l-0.615-10.842
				C235.709,238.823,233.283,236.527,230.451,236.527z"/>
			<path style="opacity:0.4;fill:#407BFF;" d="M257.216,236.527h-10.842c-2.832,0-4.998,2.296-4.837,5.128l0.615,10.842
				c0.161,2.832,2.587,5.128,5.419,5.128h10.842c2.832,0,4.998-2.296,4.837-5.128l-0.615-10.842
				C262.474,238.823,260.048,236.527,257.216,236.527z"/>
			<path style="opacity:0.4;fill:#407BFF;" d="M231.985,263.578h-10.842c-2.832,0-4.998,2.296-4.837,5.128l0.615,10.842
				c0.161,2.832,2.587,5.128,5.419,5.128h10.842c2.832,0,4.998-2.296,4.837-5.128l-0.615-10.842
				C237.243,265.873,234.817,263.578,231.985,263.578z"/>
			<path style="opacity:0.4;fill:#407BFF;" d="M258.75,263.578h-10.842c-2.832,0-4.998,2.296-4.837,5.128l0.615,10.842
				c0.161,2.832,2.587,5.128,5.419,5.128h10.842c2.832,0,4.998-2.296,4.837-5.128l-0.615-10.842
				C264.008,265.873,261.582,263.578,258.75,263.578z"/>
			<path style="opacity:0.4;fill:#407BFF;" d="M233.22,303.672h-10.842c-2.832,0-4.998,2.296-4.837,5.128l0.615,10.842
				c0.161,2.832,2.587,5.128,5.419,5.128h10.842c2.832,0,4.998-2.296,4.837-5.128l-0.615-10.842
				C238.478,305.968,236.052,303.672,233.22,303.672z"/>
			<path style="opacity:0.4;fill:#407BFF;" d="M261.025,303.672h-10.842c-2.832,0-4.998,2.296-4.837,5.128l0.615,10.842
				c0.161,2.832,2.587,5.128,5.419,5.128h10.842c2.832,0,4.998-2.296,4.837-5.128l-0.615-10.842
				C266.283,305.968,263.857,303.672,261.025,303.672z"/>
			<path style="opacity:0.4;fill:#407BFF;" d="M177.612,303.672H166.77c-2.832,0-4.998,2.296-4.837,5.128l0.615,10.842
				c0.161,2.832,2.587,5.128,5.419,5.128h10.842c2.832,0,4.998-2.296,4.837-5.128L183.03,308.8
				C182.87,305.968,180.444,303.672,177.612,303.672z"/>
			<path style="opacity:0.4;fill:#407BFF;" d="M205.416,303.672h-10.842c-2.832,0-4.998,2.296-4.837,5.128l0.615,10.842
				c0.161,2.832,2.587,5.128,5.419,5.128h10.842c2.832,0,4.998-2.296,4.837-5.128l-0.615-10.842
				C210.674,305.968,208.248,303.672,205.416,303.672z"/>
			<path style="opacity:0.2;fill:#407BFF;" d="M217.791,293.031L217.791,293.031c-0.78,0-1.376,0.632-1.331,1.411l0,0
				c0.044,0.78,0.712,1.412,1.492,1.412l0,0c0.78,0,1.376-0.632,1.331-1.412l0,0C219.238,293.663,218.571,293.031,217.791,293.031z"
				/>
			<path style="opacity:0.2;fill:#407BFF;" d="M226.786,293.031L226.786,293.031c-0.779,0-1.376,0.632-1.331,1.411l0,0
				c0.044,0.78,0.712,1.412,1.492,1.412l0,0c0.779,0,1.376-0.632,1.331-1.412l0,0C228.233,293.663,227.565,293.031,226.786,293.031z
				"/>
			<path style="opacity:0.2;fill:#407BFF;" d="M199.801,293.031L199.801,293.031c-0.78,0-1.376,0.632-1.331,1.411l0,0
				c0.044,0.78,0.712,1.412,1.492,1.412l0,0c0.78,0,1.376-0.632,1.331-1.412l0,0C201.249,293.663,200.581,293.031,199.801,293.031z"
				/>
			<path style="opacity:0.4;fill:#407BFF;" d="M208.796,293.031L208.796,293.031c-0.78,0-1.376,0.632-1.331,1.411l0,0
				c0.044,0.78,0.712,1.412,1.492,1.412l0,0c0.78,0,1.376-0.632,1.331-1.412l0,0C210.243,293.663,209.576,293.031,208.796,293.031z"
				/>
			<path style="fill:#FFFFFF;" d="M160.317,149.89c0.099,1.74,1.589,3.15,3.329,3.15c1.74,0,3.07-1.41,2.971-3.15
				c-0.099-1.74-1.589-3.15-3.329-3.15S160.218,148.151,160.317,149.89z"/>
			<g>
				<path style="fill:#FFFFFF;" d="M232.206,154.606c-10.058,0-18.705-8.183-19.275-18.24c-0.57-10.058,7.148-18.241,17.206-18.241
					c10.058,0,18.705,8.183,19.275,18.241C249.982,146.423,242.263,154.606,232.206,154.606z M230.186,119.004
					c-9.574,0-16.92,7.788-16.376,17.362c0.543,9.573,8.773,17.361,18.346,17.361c9.574,0,16.92-7.788,16.377-17.361
					C247.989,126.792,239.76,119.004,230.186,119.004z"/>
				<path style="fill:#FFFFFF;" d="M231.196,136.805c-0.064,0-0.128-0.014-0.189-0.042l-6.52-2.977
					c-0.226-0.103-0.336-0.365-0.245-0.585c0.09-0.22,0.35-0.314,0.573-0.211l6.263,2.859l7.338-6.274
					c0.178-0.153,0.458-0.125,0.622,0.063c0.164,0.188,0.152,0.465-0.028,0.619l-7.543,6.449
					C231.391,136.771,231.295,136.805,231.196,136.805z"/>
			</g>
			<path style="fill:#FFFFFF;" d="M191.988,128.548c-0.233,0-0.47-0.074-0.682-0.222l-2.232-1.557c-0.096-0.067-0.218-0.067-0.307,0
				l-2.054,1.557c-0.39,0.296-0.917,0.295-1.341,0c-0.424-0.296-0.615-0.796-0.487-1.275l0.676-2.52
				c0.029-0.108-0.016-0.225-0.112-0.291l-2.231-1.558c-0.424-0.296-0.615-0.796-0.487-1.275c0.129-0.479,0.537-0.788,1.04-0.788
				h2.648c0.114,0,0.21-0.073,0.239-0.18l0.676-2.52c0.128-0.479,0.536-0.788,1.039-0.788c0.001,0,0.001,0,0.001,0
				c0.503,0,0.946,0.309,1.13,0.788l0.961,2.52c0.041,0.108,0.145,0.18,0.259,0.18h2.649c0.503,0,0.945,0.309,1.129,0.788
				c0.183,0.479,0.048,0.979-0.342,1.275l-2.054,1.557c-0.088,0.067-0.12,0.184-0.079,0.292l0.962,2.519
				c0.183,0.479,0.048,0.98-0.342,1.275C192.451,128.475,192.221,128.548,191.988,128.548z M183.82,121.499
				c-0.172,0-0.224,0.126-0.239,0.181c-0.014,0.054-0.033,0.191,0.112,0.292l2.231,1.557c0.417,0.291,0.613,0.803,0.487,1.274
				l-0.676,2.52c-0.044,0.163,0.063,0.258,0.112,0.292c0.048,0.033,0.176,0.101,0.307,0l2.054-1.557
				c0.385-0.292,0.924-0.292,1.341,0l2.232,1.557c0.146,0.101,0.264,0.034,0.307,0c0.044-0.033,0.141-0.129,0.079-0.292
				l-0.962-2.519c-0.18-0.472-0.042-0.984,0.342-1.275l2.054-1.557c0.133-0.101,0.099-0.238,0.079-0.293
				c-0.021-0.054-0.087-0.18-0.258-0.18h-2.649c-0.496,0-0.95-0.317-1.13-0.788l-0.961-2.52c-0.062-0.163-0.202-0.18-0.259-0.18l0,0
				c-0.057,0-0.195,0.018-0.238,0.18c0,0,0,0,0,0l-0.676,2.52c-0.126,0.471-0.544,0.788-1.04,0.788H183.82z M187.76,118.056h0.009
				H187.76z"/>
			<g>
				<path style="fill:#FFFFFF;" d="M165.132,129.208h-6.188c-0.853,0-1.587-0.69-1.635-1.538l-0.352-6.198
					c-0.014-0.243,0.172-0.439,0.415-0.439h1.741c0.848,0,1.499-0.69,1.451-1.538l-0.099-1.741
					c-0.014-0.243,0.172-0.439,0.415-0.439h3.577c0.848,0,1.578,0.69,1.626,1.538l0.5,8.817
					C166.632,128.518,165.98,129.208,165.132,129.208z M157.862,121.912l0.327,5.758c0.021,0.364,0.337,0.659,0.706,0.659h6.188
					c0.363,0,0.643-0.296,0.622-0.659l-0.5-8.817c-0.021-0.364-0.334-0.659-0.697-0.659h-3.138l0.074,1.301
					c0.076,1.333-0.947,2.418-2.28,2.418H157.862z"/>
			</g>
			<g>
				<path style="fill:#FFFFFF;" d="M194.758,154.298h-8.552c-0.476,0-0.886-0.388-0.913-0.864c-0.013-0.229,0.064-0.445,0.217-0.609
					l0.549-0.582l-0.13-2.282c-0.133-2.343,1.617-4.315,3.901-4.396c1.172-0.055,2.321,0.385,3.215,1.204
					c0.895,0.819,1.425,1.92,1.492,3.1l0.135,2.38l0.613,0.574c0.172,0.163,0.275,0.38,0.288,0.611
					C195.6,153.911,195.234,154.298,194.758,154.298z M190.037,146.442c-0.042,0-0.084,0.001-0.126,0.002
					c-1.817,0.065-3.209,1.643-3.103,3.518l0.13,2.287c0.013,0.23-0.064,0.447-0.217,0.61l-0.553,0.586l8.54-0.026l-0.627-0.559
					c-0.172-0.162-0.275-0.379-0.288-0.611l-0.135-2.38c-0.053-0.939-0.475-1.815-1.187-2.467
					C191.79,146.78,190.93,146.442,190.037,146.442z"/>
				<path style="fill:#FFFFFF;" d="M189.242,144.053c0.021,0.363,0.332,0.658,0.695,0.658c0.364,0,0.641-0.295,0.621-0.658
					c-0.021-0.363-0.332-0.658-0.695-0.658C189.5,143.395,189.222,143.69,189.242,144.053z"/>
				<path style="fill:#FFFFFF;" d="M191.399,155.108c0.237,0,0.421,0.238,0.348,0.459c-0.157,0.479-0.603,0.818-1.146,0.818
					c-0.544,0-1.027-0.34-1.239-0.818c-0.098-0.221,0.059-0.459,0.296-0.459H191.399z"/>
			</g>
			<path style="fill:#FFFFFF;" d="M220.45,253.031c-0.14,0-0.278-0.067-0.368-0.184c-0.114-0.148-0.129-0.345-0.038-0.497
				c0.006-0.008,0.477-0.799,0.902-1.862c-0.764-1.006-1.204-2.18-1.273-3.412c-0.186-3.284,2.334-5.956,5.618-5.956
				c3.284,0,6.107,2.672,6.293,5.956c0.186,3.284-2.334,5.956-5.617,5.956c-1.13,0-2.239-0.317-3.226-0.919
				c-1.085,0.615-2.135,0.893-2.182,0.905C220.523,253.027,220.486,253.031,220.45,253.031z M222.704,251.157
				c0.088,0,0.178,0.027,0.256,0.079c0.892,0.599,1.914,0.916,2.956,0.916c2.798,0,4.947-2.277,4.788-5.077
				c-0.159-2.799-2.565-5.076-5.364-5.076c-2.799,0-4.948,2.277-4.789,5.076c0.064,1.125,0.489,2.193,1.23,3.09
				c0.104,0.127,0.135,0.296,0.08,0.443c-0.167,0.442-0.345,0.844-0.506,1.182c0.347-0.146,0.742-0.336,1.128-0.572
				C222.551,251.177,222.627,251.157,222.704,251.157z"/>
			<g>
				<path style="fill:#FFFFFF;" d="M187.349,272.526h-4.618c-2.198,0-4.314-1.277-5.391-3.252c-0.364-0.668-0.877-1.255-1.525-1.749
					c-3.613-2.748-5.828-6.852-6.078-11.26c-0.224-3.952,1.212-7.772,3.94-10.48c2.766-2.746,6.511-4.121,10.545-3.871
					c7.396,0.458,13.657,6.607,14.253,14c0.366,4.538-1.368,8.765-4.757,11.597c-0.607,0.507-1.059,1.1-1.346,1.764
					C191.519,271.25,189.548,272.526,187.349,272.526z M183.34,242.716c-3.465,0-6.655,1.287-9.06,3.675
					c-2.608,2.589-3.926,6.096-3.712,9.875c0.236,4.154,2.323,8.021,5.727,10.61c0.75,0.571,1.346,1.255,1.769,2.031
					c0.925,1.696,2.737,2.789,4.62,2.789h4.618c1.883,0,3.572-1.093,4.303-2.786c0.335-0.775,0.859-1.464,1.558-2.049
					c3.194-2.669,4.827-6.651,4.483-10.927c-0.562-6.965-6.46-12.759-13.428-13.19C183.923,242.725,183.63,242.716,183.34,242.716z"
					/>
				<path style="fill:#FFFFFF;" d="M188.691,279.452h-6.515c-1.095,0-2.037-0.892-2.099-1.987l-0.079-1.4
					c-0.062-1.095,0.778-1.987,1.874-1.987h6.515c1.095,0,2.038,0.892,2.1,1.987l0.079,1.4
					C190.627,278.56,189.786,279.452,188.691,279.452z M181.918,274.909c-0.637,0-1.126,0.518-1.09,1.156l0.079,1.4
					c0.036,0.637,0.584,1.156,1.221,1.156h6.515c0.638,0,1.127-0.518,1.091-1.156l-0.079-1.4c-0.036-0.637-0.584-1.156-1.222-1.156
					H181.918z"/>
			</g>
			<g>
				<path style="fill:#FFFFFF;" d="M233.24,279.996h-11.489c-0.828,0-1.54-0.674-1.588-1.502l-0.496-8.736
					c-0.047-0.828,0.589-1.502,1.417-1.502h11.489c0.828,0,1.54,0.674,1.587,1.502l0.495,8.736
					C234.704,279.322,234.069,279.996,233.24,279.996z M221.135,269.135c-0.343,0-0.607,0.28-0.588,0.623l0.496,8.736
					c0.02,0.344,0.315,0.623,0.659,0.623h11.489c0.343,0,0.607-0.279,0.588-0.623l-0.496-8.736
					c-0.019-0.344-0.315-0.623-0.659-0.623H221.135z"/>
				<path style="fill:#FFFFFF;" d="M233.835,271.743H220.22c-0.243,0-0.451-0.197-0.464-0.44c-0.014-0.243,0.172-0.44,0.415-0.44
					h13.614c0.243,0,0.451,0.197,0.464,0.44C234.263,271.546,234.078,271.743,233.835,271.743z"/>
				<path style="fill:#FFFFFF;" d="M222.447,274.787h1.404c0.212,0,0.374-0.172,0.362-0.384l-0.036-0.626
					c-0.012-0.212-0.194-0.384-0.406-0.384h-1.404c-0.212,0-0.374,0.172-0.362,0.384l0.035,0.626
					C222.053,274.615,222.235,274.787,222.447,274.787z"/>
				<path style="fill:#FFFFFF;" d="M226.498,274.787h1.404c0.212,0,0.374-0.172,0.362-0.384l-0.036-0.626
					c-0.012-0.212-0.194-0.384-0.406-0.384h-1.404c-0.212,0-0.374,0.172-0.362,0.384l0.035,0.626
					C226.105,274.615,226.286,274.787,226.498,274.787z"/>
				<path style="fill:#FFFFFF;" d="M230.549,274.787h1.404c0.212,0,0.374-0.172,0.362-0.384l-0.036-0.626
					c-0.012-0.212-0.194-0.384-0.406-0.384h-1.404c-0.212,0-0.374,0.172-0.362,0.384l0.035,0.626
					C230.156,274.615,230.337,274.787,230.549,274.787z"/>
				<path style="fill:#FFFFFF;" d="M222.61,277.665h1.404c0.212,0,0.374-0.172,0.362-0.384l-0.036-0.626
					c-0.012-0.212-0.194-0.384-0.406-0.384h-1.404c-0.212,0-0.374,0.172-0.362,0.384l0.036,0.626
					C222.217,277.493,222.398,277.665,222.61,277.665z"/>
				<path style="fill:#FFFFFF;" d="M226.661,277.665h1.404c0.212,0,0.374-0.172,0.362-0.384l-0.036-0.626
					c-0.012-0.212-0.194-0.384-0.406-0.384h-1.404c-0.212,0-0.374,0.172-0.362,0.384l0.036,0.626
					C226.268,277.493,226.449,277.665,226.661,277.665z"/>
				<path style="fill:#FFFFFF;" d="M230.713,277.665h1.404c0.212,0,0.374-0.172,0.362-0.384l-0.036-0.626
					c-0.012-0.212-0.194-0.384-0.406-0.384h-1.404c-0.212,0-0.374,0.172-0.362,0.384l0.036,0.626
					C230.319,277.493,230.501,277.665,230.713,277.665z"/>
			</g>
			<g>
				<path style="fill:#FFFFFF;" d="M253.539,254.473h-1.942c-0.622,0-1.157-0.506-1.192-1.128l-0.088-1.551
					c-0.035-0.622,0.442-1.128,1.064-1.128h1.942c0.622,0,1.157,0.506,1.192,1.128l0.088,1.551
					C254.638,253.967,254.161,254.473,253.539,254.473z M251.431,251.546c-0.137,0-0.243,0.112-0.235,0.249l0.088,1.551
					c0.008,0.137,0.126,0.249,0.263,0.249h1.942c0.137,0,0.243-0.112,0.235-0.249l-0.088-1.551
					c-0.008-0.137-0.126-0.249-0.263-0.249H251.431z M253.836,249.591h-3.098c-0.243,0-0.451-0.197-0.464-0.439l-0.018-0.31
					c-0.033-0.586,0.008-1.055,0.125-1.435c0.116-0.378,0.304-0.728,0.557-1.039c0.236-0.291,0.746-0.777,1.561-1.485
					c0.444-0.379,0.468-0.592,0.465-0.649c-0.015-0.258-0.115-0.348-0.148-0.377c-0.12-0.106-0.344-0.129-0.51-0.129
					c-0.27,0-0.471,0.08-0.631,0.252c-0.117,0.125-0.264,0.414-0.299,1.077c-0.006,0.117-0.059,0.224-0.148,0.296
					c-0.087,0.073-0.201,0.106-0.321,0.091l-3.186-0.391c-0.238-0.029-0.42-0.24-0.411-0.477c0.047-1.265,0.459-2.303,1.226-3.084
					c0.773-0.788,1.994-1.187,3.626-1.187c1.27,0,2.333,0.275,3.164,0.818c1.154,0.751,1.776,1.774,1.848,3.038
					c0.031,0.54-0.089,1.065-0.356,1.562c-0.259,0.482-0.775,1.036-1.576,1.695c-0.624,0.518-0.815,0.794-0.874,0.913
					c-0.096,0.197-0.135,0.473-0.116,0.82C254.264,249.395,254.079,249.591,253.836,249.591z M251.129,248.712h2.244
					c0.021-0.308,0.087-0.577,0.198-0.803c0.159-0.323,0.503-0.698,1.085-1.181c0.709-0.584,1.173-1.072,1.379-1.454
					c0.196-0.364,0.28-0.727,0.258-1.113c-0.055-0.968-0.52-1.723-1.421-2.31c-0.677-0.443-1.572-0.667-2.662-0.667
					c-1.397,0-2.417,0.317-3.03,0.941c-0.542,0.552-0.858,1.246-0.959,2.11l2.318,0.285c0.075-0.515,0.232-0.897,0.476-1.158
					c0.317-0.341,0.735-0.513,1.241-0.513c0.471,0,0.849,0.123,1.124,0.367c0.195,0.174,0.432,0.491,0.462,1.018
					c0.025,0.443-0.219,0.877-0.747,1.328c-0.764,0.665-1.257,1.131-1.461,1.383c-0.187,0.23-0.325,0.486-0.41,0.763
					C251.146,247.96,251.114,248.298,251.129,248.712z"/>
			</g>
			<g>
				<path style="fill:#FFFFFF;" d="M253.967,274.817c-1.999,0-3.718-1.627-3.832-3.626c-0.113-1.999,1.421-3.626,3.42-3.626
					c1.999,0,3.718,1.627,3.832,3.626C257.5,273.19,255.966,274.817,253.967,274.817z M253.605,268.444
					c-1.514,0-2.677,1.232-2.591,2.747c0.086,1.515,1.389,2.747,2.903,2.747s2.677-1.232,2.591-2.747
					C256.422,269.676,255.119,268.444,253.605,268.444z"/>
				<path style="fill:#FFFFFF;" d="M259.208,280.688c-0.243,0-0.451-0.197-0.465-0.44c-0.188-3.307-3.623-3.564-4.671-3.564
					c-1.048,0-4.454,0.257-4.266,3.564c0.014,0.243-0.172,0.44-0.415,0.44c-0.243,0-0.451-0.197-0.464-0.44
					c-0.153-2.699,1.847-4.443,5.095-4.443c3.249,0,5.447,1.744,5.6,4.443C259.637,280.492,259.451,280.688,259.208,280.688z"/>
			</g>
		</g>
	</g>
</g>
<g id="Character_1_">
	<g>
		<path style="opacity:0.5;fill:#407BFF;" d="M247.505,165.016l-89.677,22.658c-2.84,0.718-4.396,3.701-3.476,6.664l13.229,42.605
			c0.92,2.963,3.968,4.783,6.808,4.066l89.677-22.658c2.84-0.717,4.396-3.701,3.476-6.664l-13.229-42.605
			C253.393,166.119,250.345,164.298,247.505,165.016z"/>
		<g>
			<path style="fill:#263238;" d="M383.835,150.7l0.733,2.833c0.228,0.918,0.428,1.836,0.634,2.752
				c0.415,1.832,0.758,3.677,1.101,5.527c0.647,3.707,1.214,7.451,1.559,11.293c0.182,1.918,0.318,3.868,0.412,5.846
				c0.072,1.979,0.076,4.01,0.005,6.101c-0.082,2.091-0.217,4.259-0.639,6.618c-0.443,2.364-0.979,4.908-2.556,8.039l-0.132,0.261
				c-0.152,0.303-0.348,0.62-0.536,0.89c-1.836,2.58-4.602,4.628-7.195,5.607c-2.609,1.025-4.972,1.298-7.057,1.345
				c-2.098,0.049-3.948-0.206-5.685-0.546c-1.727-0.351-3.337-0.783-4.868-1.305c-3.054-1.055-5.83-2.336-8.466-3.783
				c-1.318-0.721-2.59-1.5-3.842-2.299l-1.848-1.255l-1.863-1.382c-2.327-1.726-2.815-5.011-1.089-7.338
				c1.266-1.707,3.37-2.424,5.321-2.004l0.503,0.11l3.741,0.811c1.262,0.284,2.53,0.527,3.777,0.765
				c2.494,0.462,4.947,0.846,7.234,1c1.14,0.08,2.228,0.129,3.222,0.081c0.983-0.053,1.879-0.176,2.512-0.345
				c0.638-0.167,1.002-0.429,0.897-0.527c-0.092-0.129-0.637,0.145-0.942,0.448l-0.668,1.151c-0.047-0.112,0.169-1.111,0.206-2.281
				c0.049-1.187,0.074-2.6-0.014-4.084c-0.079-1.485-0.208-3.03-0.402-4.617c-0.172-1.588-0.374-3.199-0.627-4.831
				c-0.512-3.259-1.076-6.581-1.732-9.905l-0.997-4.994l-1.014-4.874l-0.073-0.352c-1.178-5.661,2.456-11.205,8.117-12.384
				C377.053,141.929,382.437,145.335,383.835,150.7z"/>
			<path style="opacity:0.2;" d="M383.835,150.7l0.733,2.833c0.228,0.918,0.428,1.836,0.634,2.752
				c0.415,1.832,0.758,3.677,1.101,5.527c0.647,3.707,1.214,7.451,1.559,11.293c0.182,1.918,0.318,3.868,0.412,5.846
				c0.072,1.979,0.076,4.01,0.005,6.101c-0.082,2.091-0.217,4.259-0.639,6.618c-0.443,2.364-0.979,4.908-2.556,8.039l-0.132,0.261
				c-0.152,0.303-0.348,0.62-0.536,0.89c-1.836,2.58-4.602,4.628-7.195,5.607c-2.609,1.025-4.972,1.298-7.057,1.345
				c-2.098,0.049-3.948-0.206-5.685-0.546c-1.727-0.351-3.337-0.783-4.868-1.305c-3.054-1.055-5.83-2.336-8.466-3.783
				c-1.318-0.721-2.59-1.5-3.842-2.299l-1.848-1.255l-1.863-1.382c-2.327-1.726-2.815-5.011-1.089-7.338
				c1.266-1.707,3.37-2.424,5.321-2.004l0.503,0.11l3.741,0.811c1.262,0.284,2.53,0.527,3.777,0.765
				c2.494,0.462,4.947,0.846,7.234,1c1.14,0.08,2.228,0.129,3.222,0.081c0.983-0.053,1.879-0.176,2.512-0.345
				c0.638-0.167,1.002-0.429,0.897-0.527c-0.092-0.129-0.637,0.145-0.942,0.448l-0.668,1.151c-0.047-0.112,0.169-1.111,0.206-2.281
				c0.049-1.187,0.074-2.6-0.014-4.084c-0.079-1.485-0.208-3.03-0.402-4.617c-0.172-1.588-0.374-3.199-0.627-4.831
				c-0.512-3.259-1.076-6.581-1.732-9.905l-0.997-4.994l-1.014-4.874l-0.073-0.352c-1.178-5.661,2.456-11.205,8.117-12.384
				C377.053,141.929,382.437,145.335,383.835,150.7z"/>
		</g>
		<path style="fill:#263238;" d="M395.546,411.576c0,0,8.135-8.17,7.811-10.871l7.684-4.367l5.026,7.87l-4.236,2.618l-1.195-0.309
			l-0.732,1.404c-3.832,2.178-11.263,5.628-14.259,5.648C395.011,412.298,395.546,411.576,395.546,411.576z"/>
		<path style="fill:#407BFF;" d="M388.152,310.623c-5.722-40.966-3.854-65.87-9.861-86.061l-37.201-2.992
			c0,0,16.487,64.994,24.047,92.057c7.589,27.168,36.581,88.922,36.581,88.922l10.114-5.747
			C411.831,396.8,398.225,342.315,388.152,310.623z"/>
		<path style="opacity:0.2;" d="M357.809,251.866c2.533,5.855,7.471,43.427,7.451,62.189c-0.04-0.14-0.08-0.289-0.12-0.429
			c-2.655-9.509-6.418-23.711-10.179-38.13L357.809,251.866z"/>
		<path style="fill:#263238;" d="M329.059,412.923c0,0,15.43-3.502,16.137-6.01l9.79,0l0.813,9.325h-5.441l-1.005-0.859
			l-1.211,0.859c-4.408,0-17.126,0.037-19.863-1.596C328.257,413.231,329.059,412.923,329.059,412.923z"/>
		<path style="fill:#407BFF;" d="M355.187,311.772c8.172-55.516,8.172-89.882,8.172-89.882l-36.404-0.587
			c0,0,4.371,66.201,5.891,93.929c1.577,28.831,10.578,92.282,10.578,92.282h12.689
			C356.112,407.515,359.017,347.416,355.187,311.772z"/>
		<path style="fill:#FFC3BD;" d="M359.138,117.674c1.689,7.329,2.963,16.73,5.069,22.139c-3.673,3.414-9.627,7.651-17.561,7.536
			c-7.934-0.115-6.483-5.481-4.355-8.245c5.685-2.868,5.906-5.768,4.516-8.317L359.138,117.674z"/>
		<path style="fill:#407BFF;" d="M372.741,141.354c0,0-5.063-5.953-7.058-6.95c-1.995-0.997-17.129,1.049-20.703,1.714
			c-3.574,0.665-7.919,5.985-7.919,5.985L372.741,141.354z"/>
		<path style="fill:#263238;" d="M334.08,116.759c0.161,0.717-0.089,1.38-0.56,1.481c-0.47,0.101-0.982-0.398-1.143-1.115
			c-0.161-0.717,0.09-1.38,0.56-1.481C333.408,115.543,333.919,116.042,334.08,116.759z"/>
		<path style="fill:#263238;" d="M332.809,121.039c-1.849,0-3.697-1.903-4.291-4.547c-0.389-1.736-0.164-3.488,0.602-4.685
			c0.477-0.746,1.127-1.227,1.882-1.39c2.027-0.435,4.197,1.578,4.851,4.488l0,0c0.389,1.736,0.164,3.488-0.602,4.686
			c-0.477,0.746-1.128,1.227-1.883,1.389C333.182,121.019,332.996,121.038,332.809,121.039z M331.572,110.89
			c-0.153,0-0.306,0.016-0.457,0.048c-0.613,0.132-1.147,0.532-1.546,1.155c-0.69,1.081-0.889,2.681-0.529,4.281
			c0.588,2.626,2.479,4.457,4.215,4.083c0.613-0.132,1.148-0.532,1.547-1.155c0.69-1.08,0.889-2.681,0.529-4.281
			C334.794,112.625,333.171,110.89,331.572,110.89z"/>
		<path style="fill:#ED847E;" d="M334.348,117.751c0,0-0.706,4.487-2.058,6.87c1.538,0.91,3.58-0.097,3.58-0.097L334.348,117.751z"
			/>
		<path style="fill:#263238;" d="M331.598,112.631c0.117,0.076,0.269,0.094,0.406,0.034c1.739-0.76,3.052,0.072,3.107,0.107
			c0.199,0.13,0.465,0.074,0.594-0.126c0.129-0.2,0.074-0.466-0.124-0.598c-0.073-0.046-1.744-1.132-3.922-0.179
			c-0.217,0.095-0.316,0.35-0.221,0.57C331.472,112.521,331.529,112.586,331.598,112.631z"/>
		<path style="fill:#FFC3BD;" d="M357.875,109.459c1.435,8.92,2.73,14.072-0.715,19.551c-5.183,8.241-16.991,6.557-21.073-1.777
			c-3.674-7.501-5.404-20.829,2.455-26.194C346.284,95.754,356.44,100.538,357.875,109.459z"/>
		<path style="fill:#263238;" d="M342.753,118.597c-4.643-0.155-7.521-1.977-7.521-1.977s-0.534-4.989,0.287-8.88
			c-1.599,0.619-7.713,2.244-8.023-3.947c2.58,2.167,6.804-1.161,5.143-2.244c-1.661-1.083-5.788-2.167-5.272-4.334
			c2.115,2.167,6.508,2.012,7.485,0.722c-1.552-2.631-3.626-1.651-3.626-1.651s3.21-4.128,9.556-0.826
			c-2.27-3.405,2.528-5.211,2.528-5.211s-1.703,2.838,1.083,3.147c2.786,0.31,13.363-1.317,11.815,3.547
			c4.128-1.431,8.938,3.379,7.236,10.035c-1.703,6.656-0.87,20.044-2.729,20.368C350.889,129.059,344.559,124.118,342.753,118.597z"
			/>
		<path style="fill:#263238;" d="M341.552,117.209c-0.003,0-0.007,0-0.011,0l-12.773-0.509c-0.148-0.006-0.262-0.13-0.256-0.277
			c0.006-0.144,0.124-0.256,0.267-0.256c0.003,0,0.007,0,0.011,0l12.773,0.509c0.147,0.006,0.262,0.13,0.256,0.277
			C341.813,117.096,341.695,117.209,341.552,117.209z"/>
		<path style="fill:#263238;" d="M353.887,97.422c3.437-0.598,3.99-5.675,1.651-6.432C361.317,91.402,359.838,98.763,353.887,97.422
			z"/>
		<path style="fill:#FFC3BD;" d="M345.782,117.088c0.33,2.134-0.251,4.143-1.187,5.456c-1.408,1.975-3.588,0.746-4.432-1.66
			c-0.76-2.166-0.943-5.803,1.065-6.893C343.207,112.918,345.405,114.648,345.782,117.088z"/>
		<g>
			<path style="fill:#263238;" d="M372.228,140.351c-12.298-1.516-29.744-1.377-41.325,0.643
				c-5.897,1.029-10.315,5.952-10.801,11.919c-1.438,17.665,2.47,48.55,5.844,79.635c27.251,9.143,54.913-0.123,54.913-0.123
				c0.608-6.274-2.771-26.819-4.876-37.791c1.548-11.327,5.474-24.297,7.692-39.339C384.751,147.99,379.556,141.254,372.228,140.351
				z"/>
		</g>
		<path style="opacity:0.2;" d="M335.217,165.091c-1.855,10.642-7.75,23.32-13.136,31.708c-0.738-7.351-1.356-14.353-1.755-20.806
			L335.217,165.091z"/>
		<g>
			<g>
				<g>
					<path style="fill:#FFFFFF;" d="M173.846,223.69l96.503-13.785c2.899-0.414,4.781-3.082,4.202-5.958l-9.281-46.125
						c-0.579-2.876-3.398-4.872-6.298-4.458L162.47,167.15c-2.9,0.414-4.781,3.082-4.202,5.958l9.281,46.125
						C168.127,222.108,170.946,224.104,173.846,223.69z"/>
					<path style="opacity:0.2;fill:#407BFF;" d="M173.846,223.69l96.503-13.785c2.899-0.414,4.781-3.082,4.202-5.958l-9.281-46.125
						c-0.579-2.876-3.398-4.872-6.298-4.458L162.47,167.15c-2.9,0.414-4.781,3.082-4.202,5.958l9.281,46.125
						C168.127,222.108,170.946,224.104,173.846,223.69z"/>
				</g>
				<path style="fill:#FFFFFF;" d="M253.175,173.236L175.716,184.3c-2.421,0.346-4.782-1.326-5.265-3.727
					c-0.483-2.401,1.093-4.635,3.513-4.981l77.459-11.065c2.421-0.346,4.782,1.326,5.265,3.727
					C257.171,170.655,255.596,172.89,253.175,173.236z M174.131,176.42c-1.96,0.28-3.236,2.09-2.845,4.034
					c0.391,1.944,2.304,3.298,4.264,3.018l77.459-11.065c1.96-0.28,3.236-2.089,2.845-4.033c-0.391-1.944-2.304-3.298-4.264-3.018
					L174.131,176.42z"/>
				<path style="fill:#FFFFFF;" d="M256.015,187.349l-77.459,11.065c-2.421,0.346-4.782-1.326-5.265-3.727
					c-0.483-2.401,1.093-4.635,3.513-4.981l77.459-11.065c2.421-0.346,4.782,1.326,5.265,3.727
					C260.011,184.769,258.435,187.003,256.015,187.349z M176.97,190.534c-1.96,0.28-3.236,2.089-2.845,4.033
					c0.391,1.944,2.304,3.298,4.264,3.018l77.459-11.065c1.96-0.28,3.236-2.089,2.845-4.033c-0.391-1.944-2.304-3.298-4.264-3.018
					L176.97,190.534z"/>
				<path style="fill:#FFFFFF;" d="M258.839,201.387l-49.381,7.054c-2.378,0.34-4.7-1.303-5.175-3.663
					c-0.475-2.359,1.074-4.555,3.453-4.895l49.381-7.054c2.378-0.34,4.7,1.303,5.175,3.663
					C262.767,198.851,261.218,201.047,258.839,201.387z M207.873,200.561c-2.001,0.286-3.305,2.134-2.906,4.119
					c0.399,1.986,2.353,3.368,4.354,3.082l49.381-7.054c2.001-0.286,3.305-2.134,2.906-4.12c-0.4-1.986-2.353-3.368-4.354-3.082
					L207.873,200.561z"/>
			</g>
			<path style="fill:#FFC3BD;" d="M265.91,176.139l2.7-1.042c1.015-0.392,2.158-0.269,3.066,0.33l4.246,2.8
				c1.698,1.119,2.748,2.992,2.819,5.024l0.044,1.258c-4.36,2.035-10.571,1.022-10.571,1.022l-1.802-0.092
				c-1.605-0.083-2.797-1.343-2.738-2.895l0.137-3.574C263.858,177.734,264.693,176.608,265.91,176.139z"/>
			<path style="fill:#263238;" d="M340.922,156.871l-1.151,2.691c-0.38,0.866-0.783,1.714-1.179,2.566
				c-0.79,1.704-1.646,3.373-2.505,5.048c-1.752,3.331-3.59,6.641-5.665,9.893c-1.028,1.63-2.111,3.256-3.245,4.88
				c-1.153,1.611-2.389,3.221-3.723,4.833c-1.342,1.605-2.774,3.239-4.548,4.849c-1.795,1.601-3.774,3.287-6.935,4.803l-0.415,0.199
				c-0.259,0.124-0.55,0.23-0.817,0.305c-4.587,1.25-8.374,0.898-11.739,0.382c-3.365-0.556-6.349-1.555-9.184-2.64
				c-2.815-1.141-5.468-2.427-7.998-3.877c-1.268-0.719-2.497-1.492-3.712-2.281c-1.229-0.816-2.345-1.62-3.611-2.594
				c-2.306-1.775-2.737-5.083-0.962-7.389c1.28-1.663,3.357-2.351,5.281-1.939l0.396,0.087l3.705,0.799
				c1.25,0.284,2.507,0.533,3.747,0.782c2.483,0.492,4.932,0.922,7.301,1.208c1.181,0.139,2.334,0.27,3.455,0.335
				c1.117,0.054,2.189,0.059,3.185,0.042c1.97-0.05,3.674-0.492,4.233-0.879l-1.232,0.503c0.031-0.117,0.813-0.776,1.557-1.68
				c0.764-0.91,1.647-2.013,2.484-3.242c0.845-1.224,1.686-2.526,2.502-3.901c0.834-1.362,1.658-2.761,2.455-4.207
				c1.586-2.893,3.168-5.867,4.68-8.9l2.262-4.563l2.175-4.478l0.157-0.324c2.526-5.202,8.79-7.371,13.992-4.845
				C340.911,145.784,343.093,151.77,340.922,156.871z"/>
		</g>
	</g>
</g>
<g id="Plant">
	<g>
		<g>
			<path style="fill:#407BFF;" d="M104.725,315.297l-1.111-0.438c5.71-14.524,0.153-38.978-5.73-64.868
				c-6.498-28.599-13.218-58.172-4.406-75.514l1.064,0.541c-8.615,16.957-1.944,46.316,4.508,74.707
				C104.974,275.801,110.571,300.43,104.725,315.297z"/>
			<path style="fill:#407BFF;" d="M96.644,171.821c0,4.691-1.487,6.263-3.321,6.263c-1.834,0-3.321-1.572-3.321-6.263
				c0-4.691,3.321-10.723,3.321-10.723S96.644,167.131,96.644,171.821z"/>
			<path style="fill:#407BFF;" d="M98.238,197.984c-3.211,3.988-5.552,4.307-7.111,3.051c-1.56-1.256-1.747-3.61,1.464-7.599
				c3.211-3.988,10.165-6.844,10.165-6.844S101.449,193.995,98.238,197.984z"/>
			<path style="fill:#407BFF;" d="M105.725,237.278c-3.786,4.702-6.545,5.078-8.383,3.597c-1.839-1.48-2.06-4.256,1.726-8.958
				c3.786-4.702,11.983-8.068,11.983-8.068S109.51,232.577,105.725,237.278z"/>
			<path style="fill:#407BFF;" d="M115.265,287.858c-4.069,4.458-6.847,4.663-8.59,3.071c-1.743-1.591-1.792-4.376,2.277-8.834
				c4.069-4.458,12.46-7.311,12.46-7.311S119.335,283.4,115.265,287.858z"/>
			<path style="fill:#407BFF;" d="M87.691,212.536c4.16,2.985,4.609,5.304,3.441,6.931c-1.167,1.627-3.508,1.945-7.668-1.04
				c-4.16-2.985-7.397-9.769-7.397-9.769S83.531,209.551,87.691,212.536z"/>
			<path style="fill:#407BFF;" d="M96.966,259.649c5.63,4.039,6.236,7.177,4.657,9.379c-1.579,2.201-4.747,2.632-10.376-1.407
				c-5.63-4.039-10.01-13.22-10.01-13.22S91.336,255.61,96.966,259.649z"/>
		</g>
		<path style="fill:#263238;" d="M92.534,309.046l8.174,105.649c0.067,0.87,0.793,1.542,1.666,1.542h7.13
			c0.873,0,1.599-0.672,1.666-1.542l8.175-105.649c0.11-1.417-1.011-2.628-2.432-2.628H94.967
			C93.545,306.419,92.424,307.629,92.534,309.046z"/>
	</g>
</g>
</svg>
