<svg width="18" height="19" viewBox="0 0 18 19" fill="none" xmlns="http://www.w3.org/2000/svg">
<path d="M9.63525 2.21214C9.87815 1.56071 10.3009 1.00429 10.8511 0.609357C11.4012 0.215786 12.0525 0.00271429 12.7181 0C12.8052 0.000193078 12.8914 0.0182912 12.9716 0.0532405C13.0519 0.0881899 13.1246 0.139292 13.1856 0.203571C13.2765 0.300637 13.3381 0.422993 13.3627 0.555666C13.3874 0.688339 13.3742 0.825573 13.3246 0.950573C13.275 1.07557 13.1912 1.18291 13.0835 1.25946C12.9758 1.33601 12.8488 1.37845 12.7181 1.38157C12.3171 1.38335 11.926 1.51114 11.5969 1.748C11.2654 1.98615 11.0111 2.32191 10.8668 2.71157C10.8185 2.84101 10.7334 2.95236 10.6229 3.03106C10.5123 3.10975 10.3813 3.15213 10.2471 3.15264C10.074 3.15159 9.90819 3.08031 9.7854 2.95416C9.66262 2.82801 9.59267 2.65707 9.5906 2.47814C9.58841 2.38686 9.60358 2.29603 9.63525 2.21079V2.21214ZM17.1823 13.11C16.6527 12.8315 16.2051 12.4111 15.8864 11.8926C15.6472 11.5036 15.4852 11.0694 15.4097 10.6152C15.3342 10.161 15.3467 9.69577 15.4465 9.24657C15.5462 8.79737 15.7313 8.37312 15.991 7.99845C16.2507 7.62377 16.5797 7.30612 16.9591 7.06393C17.0782 6.98519 17.1707 6.87018 17.2239 6.73477C17.277 6.59937 17.2882 6.45025 17.2558 6.308C17.235 6.21347 17.1957 6.12435 17.1403 6.04607C16.2506 4.85058 14.9429 4.06338 13.4979 3.85353C12.0529 3.64368 10.586 4.02791 9.41204 4.92371C8.57665 4.2868 7.58566 3.90392 6.55091 3.81831C5.51616 3.7327 4.47887 3.94776 3.5561 4.43921C2.63002 4.93308 1.85428 5.6823 1.31483 6.60386C0.772644 7.52925 0.486107 8.5905 0.486328 9.67236C0.505289 11.9476 1.16303 14.1682 2.37966 16.0645C3.56923 17.9021 5.0818 19 6.4368 19H12.3886C14.2478 19 16.3473 16.9371 17.504 13.9921C17.5688 13.8304 17.5716 13.6492 17.5118 13.4854C17.4521 13.3215 17.3343 13.1873 17.1823 13.11Z" fill="white"/>
</svg>
